
<svg xmlns="http://www.w3.org/2000/svg" version="1.1" xmlns:xlink="http://www.w3.org/1999/xlink" preserveAspectRatio="none" x="0px" y="0px" width="150px" height="150px" viewBox="0 0 150 150">
<defs>
<g id="Layer0_0_FILL">
<path fill="#9C9A9B" stroke="none" d="
M 119.65 72.8
Q 119.55 72.8 119.45 72.8 115.1 73.45 110.65 74 108.5 74.35 106.35 74.7 104.2 75.05 102.05 75.45 102.05 76.3 102.1 77.2 102.15 78.9 102.2 80.65 102.25 82.25 102.3 83.9 102.3 85.3 102.25 86.7 102.15 88.55 101.65 90.35 101.3 91.4 100.75 92.35 100.3 93.1 99.5 93.6 98 94.6 96.05 94.75 93.9 94.95 91.75 94.75 89.85 94.4 87.95 93.95 86.2 93.55 84.5 93 84.85 85.2 84.5 77.85
L 66.6 80.3
Q 66.5 80.3 66.35 80.3 66.35 97 66.3 113.75 66.25 125.2 66.6 136.15 68.85 135.9 71.1 135.6 73.3 135.25 75.55 134.95 77.8 134.65 80.05 134.3 82.25 133.95 84.5 133.65 84.85 121.05 84.5 109.1 85.7 109.25 86.9 109.35 88.1 109.55 89.25 109.7 90.5 109.85 91.75 110 92.95 110.05 94.2 110.2 95.5 110.2 96.75 110.2 98 110.2 99.3 110.2 100.6 110.1 101.9 110.05 103.9 109.85 105.85 109.65 107.65 109.3 109.4 108.6 110.5 108.15 111.5 107.55 112.45 107 113.3 106.25 114.1 105.7 114.8 105 116.25 103.55 117.25 101.8 118.35 99.8 118.95 97.75 119.45 96 119.7 94.3 120 92.35 120 90.35 120.35 83.25 120.55 75.65 120.6 73.45 119.65 72.8 Z"/>

<path fill="#AF181F" stroke="none" d="
M 110.3 18.9
Q 109.65 18.65 109 18.6 106 18.55 103.05 18.65 99.25 18.75 95.7 19.35 93.15 19.9 90.6 20.45 88.2 21.15 85.95 22 85.15 22.2 84.4 22.5 83.7 22.85 82.95 23.2 82.2 23.5 81.5 23.85 80.85 22.65 80 21.65 78.75 20.3 77.2 19.5 76.05 18.95 74.9 18.7 74.2 18.6 73.5 18.55 72.5 18.5 71.5 18.5 68.65 18.55 65.7 18.7 62.05 18.95 58.5 19.65 55.05 20.25 51.95 21.35 50.4 21.95 48.9 22.5 48.15 22.85 47.4 23.2 46.7 23.5 46 23.75
L 43.95 19.2 30.9 19.2
Q 30.9 20.95 30.9 22.7 30.85 29.65 30.9 36.55 30.95 41.75 30.9 46.85 30.9 48.95 30.9 51.05 30.9 52.1 30.9 53.15 30.95 56.35 30.9 59.45 30.8 62.55 30.8 65.7 30.85 68.85 30.9 71.95 30.9 74.05 30.9 76.15 30.9 77.2 30.9 78.25 30.9 79.25 30.95 80.3 30.95 80.25 31.05 80.25 34.4 79.85 37.8 79.4 40 79.05 42.25 78.75 43.35 78.55 44.45 78.4 45.55 78.2 46.65 78.05 47.7 77.85 48.8 77.7
L 48.8 39.95
Q 50.45 39.1 52.1 38.3 53.3 37.7 54.55 37.2 56.6 36.45 58.75 36.15 61.2 35.75 63.25 35.8 63.95 35.85 64.4 36.05 65.05 36.3 65.5 36.95 65.85 37.4 65.95 37.95 66.25 39.85 66.3 41.8 66.35 43.9 66.35 46 66.35 47.05 66.35 48.1 66.4 51.2 66.35 54.4 66.35 57.6 66.35 60.65 66.4 63.75 66.35 66.9 66.35 69 66.35 71.1 66.35 72.15 66.35 73.2 66.35 74.25 66.45 75.2
L 66.6 75.2
Q 67.7 75.1 68.85 74.95 72.15 74.5 75.55 73.95 77.8 73.65 80.05 73.3 81.15 73.15 82.25 72.95 83.4 72.8 84.45 72.5 84.5 72.55 84.5 72.45
L 84.5 39.95
Q 86.3 39.1 88.1 38.3 89.9 37.45 91.8 36.7 93.35 36.1 95.05 35.85 96.1 35.8 97.2 35.7 97.75 35.75 98.3 35.8 98.9 35.9 99.45 36 100 36.1 100.6 36.2 101.2 36.45 101.5 37.1 101.55 37.7 101.6 38.25 101.7 40.25 101.8 42.3 101.8 43.25 101.85 44.25 101.9 47.25 101.95 50.25 102.05 53.3 102.1 56.3 102.15 59.35 102.2 62.2 102.2 64.2 102.25 66.25 102.25 67.25 102.25 68.25 102.25 69.2 102.35 70.2 102.35 70.15 102.45 70.15
L 120.2 67.6
Q 120.2 65.75 120.2 63.95 120.25 59.45 120.3 54.9 120.3 52.2 120.35 49.4 120.35 48.5 120.35 47.6 120.35 44 120.5 40.3 120.65 36.4 120.1 32.45 119.6 28.55 117.9 25.2 117.15 23.65 116 22.4 115.2 21.6 114.4 20.85 113.5 20.15 112.55 19.65 111.45 19.1 110.3 18.9 Z"/>
</g>
</defs>

<g transform="matrix( 1, 0, 0, 1, 0,0) ">
<use xlink:href="#Layer0_0_FILL"/>
</g>
</svg>
